<svg xmlns="http://www.w3.org/2000/svg" height="678.24782pt" version="1.1" viewBox="0 0 678.24782 678.24782" width="678.24782pt">
<g id="surface1">
<path d="M 428.546875 279.199219 C 426.746094 278.199219 424.847656 277 423.148438 275.898438 L 420.347656 299.199219 C 405.449219 424.398438 339.847656 537.898438 238.847656 613.398438 L 214.246094 631.800781 C 204.046875 639.398438 202.046875 653.898438 209.648438 664 C 211.546875 666.5 213.847656 668.5 216.546875 670.101562 L 219.847656 672.101562 C 235.746094 681.300781 255.648438 680.101562 270.347656 669 L 298.648438 647.898438 C 399.648438 572.300781 465.246094 458.800781 480.246094 333.699219 L 485.648438 288.300781 C 466.148438 292.5 445.746094 289.300781 428.546875 279.199219 Z M 428.546875 279.199219 " style=" stroke:none;fill-rule:nonzero;fill:rgb(67.058824%,13.72549%,0%);fill-opacity:1;" />
<path d="M 448.847656 197.898438 C 455.246094 186.898438 469.246094 183.101562 480.246094 189.5 C 481.949219 190.5 483.546875 191.800781 484.949219 193.199219 L 525.746094 152.398438 C 520.746094 147.398438 515.148438 143.101562 509.046875 139.601562 L 589.746094 0 L 589.546875 0 C 523.449219 12.398438 466.148438 53.101562 432.546875 111.300781 L 399.148438 169.101562 C 394.847656 176.398438 391.847656 184.300781 390.148438 192.601562 C 385.449219 214.199219 389.949219 236.898438 402.449219 255.101562 C 405.246094 259.199219 408.347656 262.898438 411.847656 266.398438 L 452.648438 225.601562 C 445.246094 218.300781 443.746094 206.898438 448.847656 197.898438 Z M 448.847656 197.898438 " style=" stroke:none;fill-rule:nonzero;fill:rgb(82.745098%,82.352941%,83.921569%);fill-opacity:1;" />
<path d="M 538.546875 249.699219 C 553.046875 224.800781 553.046875 194 538.546875 169.101562 C 535.046875 163 530.746094 157.398438 525.746094 152.398438 L 484.949219 193.199219 C 493.949219 202.199219 493.949219 216.699219 485.046875 225.699219 C 477.648438 233.101562 466.246094 234.601562 457.246094 229.398438 C 455.546875 228.398438 453.949219 227.101562 452.546875 225.699219 L 411.746094 266.5 C 415.246094 270 419.046875 273.101562 423.046875 275.898438 C 424.746094 277.101562 426.648438 278.199219 428.449219 279.199219 C 445.648438 289.300781 466.046875 292.5 485.546875 288.300781 C 493.746094 286.5 501.746094 283.398438 509.046875 279.199219 L 511.648438 277.699219 C 522.847656 270.699219 532.046875 261.101562 538.546875 249.699219 Z M 538.546875 249.699219 " style=" stroke:none;fill-rule:nonzero;fill:rgb(85.098039%,84.705882%,86.27451%);fill-opacity:1;" />
<path d="M 485.046875 193.199219 C 483.648438 191.800781 482.046875 190.5 480.347656 189.5 C 469.347656 183.101562 455.347656 186.898438 448.949219 197.800781 C 443.746094 206.800781 445.246094 218.199219 452.648438 225.601562 C 454.046875 227 455.648438 228.300781 457.347656 229.300781 C 468.347656 235.699219 482.347656 231.898438 488.746094 221 C 493.949219 212 492.449219 200.601562 485.046875 193.199219 Z M 485.046875 193.199219 " style=" stroke:none;fill-rule:nonzero;fill:rgb(58.823529%,58.039216%,61.176471%);fill-opacity:1;" />
<path d="M 538.546875 169.101562 C 560.148438 206.601562 548.347656 254.5 511.746094 277.699219 L 566.949219 245.800781 C 625.148438 212.199219 665.847656 154.800781 678.246094 88.800781 L 678.246094 88.5 Z M 538.546875 169.101562 " style=" stroke:none;fill-rule:nonzero;fill:rgb(87.45098%,87.45098%,88.627451%);fill-opacity:1;" />
<path d="M 390.046875 192.601562 L 344.546875 198 C 219.449219 213 105.949219 278.601562 30.347656 379.5 L 9.246094 407.800781 C -1.851562 422.5 -3.050781 442.398438 6.148438 458.300781 L 8.148438 461.601562 C 14.546875 472.601562 28.648438 476.398438 39.648438 470 C 42.347656 468.5 44.648438 466.398438 46.546875 463.898438 L 64.949219 439.300781 C 140.449219 338.398438 254.046875 272.800781 379.148438 257.800781 L 402.449219 255 C 389.847656 236.898438 385.347656 214.300781 390.046875 192.601562 Z M 390.046875 192.601562 " style=" stroke:none;fill-rule:nonzero;fill:rgb(67.058824%,13.72549%,0%);fill-opacity:1;" />
</g>
</svg>